<svg width="96" height="96" viewBox="0 0 96 96" fill="none" xmlns="http://www.w3.org/2000/svg">
  <rect width="96" height="96" rx="20" fill="#3B82F6"/>
  <path d="M31.2 64V32H44.8C48.48 32 51.6 33.12 54.16 35.36C56.72 37.6 58 40.4 58 43.76C58 45.68 57.52 47.44 56.56 49.04C55.6 50.64 54.16 51.92 52.24 52.88L59.68 64H51.84L45.52 54.24H38.4V64H31.2ZM38.4 47.84H44.8C46.24 47.84 47.36 47.36 48.16 46.4C48.96 45.44 49.36 44.48 49.36 43.52C49.36 42.56 48.96 41.6 48.16 40.64C47.36 39.68 46.24 39.2 44.8 39.2H38.4V47.84Z" fill="white"/>
  <path d="M60.8 64V32H68V64H60.8Z" fill="white"/>
</svg>